<svg width="512" height="512" viewBox="0 0 512 512" fill="none" xmlns="http://www.w3.org/2000/svg">
<g clip-path="url(#clip0)">
<path d="M434.194 322.653H379.659C366.404 282.528 344.015 258.133 327.209 244.588C318.866 237.864 311.088 233.097 304.898 229.834C322.338 216.76 334.377 196.878 337.087 174.172C338.409 174.335 339.747 174.424 341.101 174.424C358.932 174.424 373.438 159.917 373.438 142.087C373.438 132.513 369.252 123.902 362.619 117.976C365.896 104.328 366.986 91.701 365.846 80.387C365.429 76.258 361.751 73.252 357.615 73.664C353.486 74.08 350.476 77.766 350.892 81.895C351.761 90.512 351.073 100.173 348.857 110.697C346.37 110.082 343.774 109.75 341.1 109.75C338.267 109.75 335.5 110.121 332.818 110.833C328.599 104.942 320.946 93.231 314.934 78.329C313.522 74.829 309.733 72.918 306.079 73.867C305.757 73.95 273.71 82.206 255.999 82.206C238.288 82.206 206.241 73.95 205.919 73.867C202.267 72.92 198.476 74.829 197.064 78.329C191.048 93.242 183.396 104.947 179.18 110.833C176.498 110.122 173.731 109.75 170.898 109.75C167.946 109.75 165.088 110.155 162.369 110.9C152.759 77.585 172.726 55.008 173.62 54.021C175.597 51.878 176.156 48.785 175.054 46.086C170.65 35.298 175.639 24.4 179.651 18.115C187.594 22.918 202.356 28.373 224.744 23.482C227.906 22.791 231.078 22.049 234.436 21.264C269.249 13.119 295.052 9.267 310.076 34.012C311.134 35.755 312.891 37.001 314.879 37.45C315.046 37.488 331.721 41.411 342.283 56.945C344.616 60.376 349.29 61.267 352.723 58.934C356.155 56.6 357.045 51.926 354.712 48.494C343.7 32.3 327.999 25.805 321.292 23.66C299.113 -9.298 259.862 -0.119 231.014 6.63C227.712 7.403 224.593 8.132 221.538 8.8C195.987 14.38 184.659 3.463 183.76 2.543C181.017 -0.827 175.535 -0.833 172.693 2.441C171.844 3.349 153.08 23.761 159.659 47.439C152.787 56.732 137.205 83.076 148.958 118.361C142.57 124.272 138.561 132.719 138.561 142.088C138.561 159.919 153.068 174.425 170.898 174.425C172.252 174.425 173.59 174.336 174.912 174.173C177.622 196.878 189.66 216.759 207.098 229.832C198.217 234.512 186.065 242.295 173.649 254.527C170.693 257.439 170.657 262.197 173.57 265.154C176.484 268.111 181.241 268.145 184.197 265.233C197.918 251.716 211.317 244.282 218.934 240.759L231.793 273.349L222.791 322.653H148.228C152.874 309.778 158.828 297.903 165.988 287.25C168.303 283.806 167.388 279.137 163.943 276.822C160.499 274.508 155.83 275.422 153.515 278.867C144.727 291.942 137.632 306.658 132.351 322.654H77.806C57.088 322.654 40.233 339.509 40.233 360.227V474.429C40.233 495.147 57.088 512.002 77.806 512.002H336.653C340.803 512.002 344.167 508.638 344.167 504.488C344.167 500.338 340.803 496.973 336.653 496.973H77.806C65.375 496.973 55.263 486.86 55.263 474.429V360.225C55.263 347.794 65.376 337.682 77.806 337.682H434.195C446.626 337.682 456.739 347.795 456.739 360.225V474.427C456.739 486.858 446.626 496.971 434.195 496.971H366.71C362.56 496.971 359.195 500.335 359.195 504.486C359.195 508.636 362.559 512 366.71 512H434.194C454.912 512 471.767 495.145 471.767 474.427V360.225C471.767 339.508 454.912 322.653 434.194 322.653ZM337.687 125.115C338.8 124.892 339.941 124.78 341.101 124.78C350.645 124.78 358.409 132.545 358.409 142.088C358.409 151.632 350.644 159.396 341.101 159.396C339.941 159.396 338.8 159.284 337.687 159.061V125.115ZM174.313 159.062C173.199 159.284 172.059 159.396 170.899 159.396C161.355 159.396 153.591 151.632 153.591 142.088C153.591 132.545 161.355 124.78 170.899 124.78C172.06 124.78 173.2 124.892 174.313 125.115V159.062ZM189.342 164.44V164.384C189.342 164.382 189.343 164.379 189.343 164.377V122.394C196.98 111.927 201.621 104.535 208.437 89.957C219.195 92.491 241.3 97.236 256 97.236C270.7 97.236 292.801 92.493 303.561 89.958C310.788 105.999 319.113 117.729 322.658 122.393V164.377V164.44C322.658 201.196 292.756 231.098 256 231.098C219.244 231.098 189.342 201.195 189.342 164.44ZM275.749 243.699L267.316 265.072H244.685L236.252 243.699C242.58 245.276 249.192 246.126 256.001 246.126C262.809 246.127 269.421 245.276 275.749 243.699ZM238.068 322.653L245.837 280.102H266.161L273.93 322.653H238.068ZM289.209 322.653L280.207 273.349L293.068 240.755C298.924 243.459 308.18 248.464 318.343 256.748C338.78 273.405 354.034 295.541 363.779 322.654H289.209V322.653Z" fill="black"/>
<path d="M288.858 144.914C293.008 144.914 296.372 141.55 296.372 137.4V125.386C296.372 121.236 293.008 117.871 288.858 117.871C284.708 117.871 281.344 121.235 281.344 125.386V137.4C281.343 141.55 284.708 144.914 288.858 144.914Z" fill="black"/>
<path d="M223.142 144.914C227.292 144.914 230.657 141.55 230.657 137.4V125.386C230.657 121.236 227.293 117.871 223.142 117.871C218.991 117.871 215.628 121.235 215.628 125.386V137.4C215.628 141.55 218.992 144.914 223.142 144.914Z" fill="black"/>
<path d="M292.056 203.671C295.103 203.076 297.471 200.669 298.015 197.612C300.795 181.991 298.294 169.401 290.58 160.194C279.848 147.385 262.823 146.001 256.001 146.001C249.179 146.001 232.153 147.384 221.422 160.194C213.708 169.402 211.207 181.991 213.987 197.612C214.531 200.669 216.899 203.076 219.946 203.671C220.324 203.745 223.395 204.314 227.833 204.314C235.43 204.314 247.034 202.646 256.002 193.976C270.208 207.711 291.031 203.87 292.056 203.671ZM249.409 178.035C244.159 187.623 234.185 189.282 228.051 189.31C227.424 181.007 229.061 174.476 232.941 169.844C239.606 161.888 251.287 161.029 256 161.029C260.713 161.029 272.394 161.888 279.059 169.844C282.939 174.475 284.576 181.007 283.949 189.307C277.803 189.28 267.838 187.617 262.591 178.034C261.272 175.626 258.745 174.128 256 174.128C253.255 174.13 250.728 175.627 249.409 178.035Z" fill="black"/>
<path d="M129.62 472V447.64H79.5V440.36L130.32 374H141.8V436.72H155.66V447.64H141.8V472H129.62ZM129.62 436.72V391.22L95.46 436.72H129.62Z" fill="black"/>
<path d="M184.933 472V393.88H168.553V385.62C179.1 385.62 185.68 381.747 188.293 374H197.113V472H184.933Z" fill="black"/>
<path d="M226.8 436.16V424.4H259.56V436.16H226.8Z" fill="black"/>
<path d="M313.378 473.68C302.738 473.68 294.524 470.18 288.738 463.18C283.044 456.087 280.198 446.94 280.198 435.74C280.198 420.247 284.818 406.62 294.058 394.86C303.391 383.1 316.038 375.587 331.998 372.32V383.1C323.131 385.153 315.198 389.447 308.198 395.98C301.291 402.42 296.858 410.027 294.898 418.8C299.564 413.48 306.704 410.82 316.318 410.82C324.718 410.82 331.764 413.807 337.458 419.78C343.151 425.753 345.998 433.033 345.998 441.62C345.998 450.86 342.871 458.513 336.618 464.58C330.458 470.647 322.711 473.68 313.378 473.68ZM313.238 462.2C319.304 462.2 324.251 460.38 328.078 456.74C331.904 453.1 333.818 448.293 333.818 442.32C333.818 436.253 331.904 431.4 328.078 427.76C324.344 424.027 319.398 422.16 313.238 422.16C307.171 422.16 302.178 424.027 298.258 427.76C294.431 431.4 292.518 436.253 292.518 442.32C292.518 448.2 294.478 453.007 298.398 456.74C302.318 460.38 307.264 462.2 313.238 462.2Z" fill="black"/>
<path d="M399.433 473.68C393.18 473.68 387.719 472.233 383.053 469.34C378.386 466.353 374.793 462.387 372.273 457.44C369.846 452.4 368.026 447.033 366.813 441.34C365.693 435.647 365.133 429.533 365.133 423C365.133 417.027 365.646 411.333 366.673 405.92C367.699 400.413 369.426 395.047 371.853 389.82C374.279 384.5 377.826 380.253 382.493 377.08C387.253 373.907 392.9 372.32 399.433 372.32C405.686 372.32 411.146 373.813 415.813 376.8C420.479 379.693 424.026 383.66 426.453 388.7C428.973 393.74 430.793 399.107 431.913 404.8C433.126 410.493 433.733 416.56 433.733 423C433.733 428.973 433.173 434.713 432.053 440.22C431.026 445.633 429.299 451 426.873 456.32C424.446 461.547 420.853 465.747 416.093 468.92C411.426 472.093 405.873 473.68 399.433 473.68ZM399.433 462.2C403.633 462.2 407.226 461.033 410.213 458.7C413.199 456.367 415.393 453.147 416.793 449.04C418.286 444.933 419.313 440.827 419.873 436.72C420.526 432.52 420.853 427.947 420.853 423C420.853 417.773 420.526 412.967 419.873 408.58C419.219 404.193 418.099 400.087 416.513 396.26C415.019 392.34 412.826 389.26 409.933 387.02C407.039 384.78 403.539 383.66 399.433 383.66C395.139 383.66 391.499 384.873 388.513 387.3C385.526 389.633 383.286 392.853 381.793 396.96C380.299 400.973 379.226 405.127 378.573 409.42C378.013 413.62 377.733 418.147 377.733 423C377.733 428.227 378.059 433.033 378.713 437.42C379.366 441.713 380.486 445.82 382.073 449.74C383.659 453.66 385.899 456.74 388.793 458.98C391.779 461.127 395.326 462.2 399.433 462.2Z" fill="black"/>
</g>
<defs>
<clipPath id="clip0">
<rect width="512" height="512" fill="white"/>
</clipPath>
</defs>
</svg>
