<svg width="512" height="512" viewBox="0 0 512 512" fill="none" xmlns="http://www.w3.org/2000/svg">
<g clip-path="url(#clip0)">
<path d="M389.277 322.429H380.131C366.875 282.353 344.502 257.986 327.71 244.458C319.374 237.742 311.604 232.98 305.421 229.722C322.844 216.652 334.893 196.787 337.602 174.093C338.923 174.256 340.26 174.345 341.612 174.345C359.437 174.345 373.938 159.844 373.938 142.019C373.938 127.153 363.848 114.607 350.159 110.848C350.846 109.625 351.192 108.227 351.121 106.8C350.124 86.634 346.734 69.07 341.046 54.593C339.528 50.73 335.168 48.83 331.303 50.347C327.441 51.865 325.54 56.227 327.057 60.09C331.411 71.169 334.268 84.451 335.578 99.657H293.924V70.473C293.924 49.862 277.156 33.095 256.546 33.095C235.936 33.095 219.168 49.863 219.168 70.473V99.657H177.51C182.355 42.738 208.267 15.03 256.546 15.03C281.365 15.03 299.821 22.102 312.97 36.651C315.753 39.729 320.504 39.97 323.584 37.188C326.663 34.405 326.904 29.653 324.121 26.574C308.186 8.941 285.451 0 256.547 0C229.507 0 207.825 7.841 192.103 23.307C173.967 41.148 163.83 69.239 161.972 106.8C161.901 108.226 162.247 109.625 162.935 110.848C149.246 114.606 139.156 127.153 139.156 142.019C139.156 159.844 153.657 174.345 171.482 174.345C172.834 174.345 174.171 174.256 175.492 174.093C178.201 196.786 190.249 216.65 207.671 229.72C199.522 234.014 188.616 240.923 177.283 251.482C174.246 254.311 174.078 259.066 176.907 262.102C178.387 263.691 180.394 264.494 182.407 264.494C184.241 264.494 186.08 263.827 187.528 262.477C199.044 251.748 210.079 245.253 217.34 241.679C220.588 260.008 231.228 283.388 256.55 283.388C281.873 283.388 292.513 260.006 295.761 241.677C301.6 244.548 309.866 249.301 318.846 256.617C339.257 273.247 354.481 295.363 364.226 322.427H148.888C153.986 308.323 160.624 295.415 168.74 283.988C171.143 280.605 170.348 275.913 166.965 273.51C163.582 271.107 158.891 271.901 156.487 275.286C146.603 289.203 138.708 305.042 132.962 322.428H122.723C101.984 322.428 85.1121 339.3 85.1121 360.039V474.387C85.1121 495.126 101.984 511.998 122.723 511.998H310.216C314.366 511.998 317.731 508.633 317.731 504.483C317.731 500.333 314.366 496.968 310.216 496.968H122.723C110.271 496.968 100.141 486.838 100.141 474.386V360.041C100.141 347.589 110.271 337.459 122.723 337.459H389.278C401.73 337.459 411.86 347.589 411.86 360.041V474.389C411.86 486.841 401.73 496.971 389.278 496.971H340.313C336.163 496.971 332.798 500.336 332.798 504.486C332.798 508.636 336.162 512.001 340.313 512.001H389.278C410.017 512.001 426.889 495.129 426.889 474.39V360.041C426.888 339.301 410.016 322.429 389.277 322.429ZM358.909 142.019C358.909 151.557 351.15 159.316 341.612 159.316C340.451 159.316 339.316 159.183 338.202 158.96V125.078C339.316 124.855 340.451 124.722 341.612 124.722C351.15 124.722 358.909 132.481 358.909 142.019ZM256.547 48.124C267.535 48.124 276.69 56.097 278.546 66.561H234.548C236.404 56.098 245.559 48.124 256.547 48.124ZM234.199 81.59H278.896V99.656H234.199V81.59ZM174.892 158.96C173.778 159.183 172.643 159.316 171.482 159.316C161.944 159.316 154.185 151.557 154.185 142.019C154.185 132.481 161.944 124.722 171.482 124.722C172.643 124.722 173.778 124.855 174.892 125.078V158.96ZM189.921 164.361V114.686H323.172V164.361C323.172 201.098 293.284 230.986 256.546 230.986C219.809 230.986 189.921 201.098 189.921 164.361ZM256.549 268.36C253.001 268.36 242.205 268.36 235.476 250.982C234.362 248.104 233.538 245.197 232.927 242.514C240.409 244.781 248.334 246.016 256.547 246.016C264.762 246.016 272.689 244.78 280.172 242.512C279.561 245.196 278.738 248.104 277.623 250.982C270.894 268.36 260.097 268.36 256.549 268.36Z" fill="black"/>
<path d="M289.39 157.121C293.54 157.121 296.905 153.757 296.905 149.606V137.598C296.905 133.448 293.54 130.083 289.39 130.083C285.24 130.083 281.875 133.447 281.875 137.598V149.606C281.876 153.756 285.24 157.121 289.39 157.121Z" fill="black"/>
<path d="M223.704 157.121C227.854 157.121 231.219 153.757 231.219 149.606V137.598C231.219 133.448 227.854 130.083 223.704 130.083C219.554 130.083 216.189 133.447 216.189 137.598V149.606C216.189 153.756 219.553 157.121 223.704 157.121Z" fill="black"/>
<path d="M230.443 188.803C232.753 194.326 240.808 203.578 256.547 203.578C272.286 203.578 280.341 194.327 282.651 188.803C283.08 187.857 283.326 186.81 283.326 185.704C283.326 181.555 279.962 178.191 275.813 178.191C272.682 178.191 269.995 180.103 268.867 182.826C268.867 182.825 268.867 182.826 268.867 182.826C268.585 183.412 265.842 188.549 256.548 188.549C247.253 188.549 244.511 183.412 244.228 182.826C244.228 182.826 244.229 182.826 244.228 182.826C243.099 180.104 240.412 178.191 237.282 178.191C233.133 178.191 229.769 181.555 229.769 185.704C229.768 186.81 230.014 187.857 230.443 188.803Z" fill="black"/>
<path d="M186.12 452.04L120.32 425.44V414.66L186.12 387.92V399.96L135.58 419.98L186.12 439.86V452.04Z" fill="black"/>
<path d="M208.034 468C208.034 461.84 208.921 456.24 210.694 451.2C212.468 446.067 215.034 441.587 218.394 437.76C221.754 433.933 225.114 430.713 228.474 428.1C231.834 425.487 235.848 422.827 240.514 420.12C244.808 417.507 248.168 415.313 250.594 413.54C253.021 411.673 255.261 409.2 257.314 406.12C259.461 403.04 260.534 399.773 260.534 396.32C260.534 391.56 258.761 387.593 255.214 384.42C251.761 381.247 247.141 379.66 241.354 379.66C230.528 379.66 223.574 384.467 220.494 394.08L209.574 389.18C211.534 383.02 215.408 378.027 221.194 374.2C226.981 370.28 233.841 368.32 241.774 368.32C251.481 368.32 259.134 370.933 264.734 376.16C270.334 381.293 273.134 388.107 273.134 396.6C273.134 399.96 272.621 403.087 271.594 405.98C270.568 408.873 269.308 411.347 267.814 413.4C266.414 415.453 264.361 417.6 261.654 419.84C258.948 422.08 256.521 423.9 254.374 425.3C252.321 426.607 249.521 428.333 245.974 430.48C239.068 434.493 233.608 438.46 229.594 442.38C225.674 446.3 223.201 450.873 222.174 456.1H273.974V468H208.034Z" fill="black"/>
<path d="M328.757 469.68C322.504 469.68 317.044 468.233 312.377 465.34C307.71 462.353 304.117 458.387 301.597 453.44C299.17 448.4 297.35 443.033 296.137 437.34C295.017 431.647 294.457 425.533 294.457 419C294.457 413.027 294.97 407.333 295.997 401.92C297.024 396.413 298.75 391.047 301.177 385.82C303.604 380.5 307.15 376.253 311.817 373.08C316.577 369.907 322.224 368.32 328.757 368.32C335.01 368.32 340.47 369.813 345.137 372.8C349.804 375.693 353.35 379.66 355.777 384.7C358.297 389.74 360.117 395.107 361.237 400.8C362.45 406.493 363.057 412.56 363.057 419C363.057 424.973 362.497 430.713 361.377 436.22C360.35 441.633 358.624 447 356.197 452.32C353.77 457.547 350.177 461.747 345.417 464.92C340.75 468.093 335.197 469.68 328.757 469.68ZM328.757 458.2C332.957 458.2 336.55 457.033 339.537 454.7C342.524 452.367 344.717 449.147 346.117 445.04C347.61 440.933 348.637 436.827 349.197 432.72C349.85 428.52 350.177 423.947 350.177 419C350.177 413.773 349.85 408.967 349.197 404.58C348.544 400.193 347.424 396.087 345.837 392.26C344.344 388.34 342.15 385.26 339.257 383.02C336.364 380.78 332.864 379.66 328.757 379.66C324.464 379.66 320.824 380.873 317.837 383.3C314.85 385.633 312.61 388.853 311.117 392.96C309.624 396.973 308.55 401.127 307.897 405.42C307.337 409.62 307.057 414.147 307.057 419C307.057 424.227 307.384 429.033 308.037 433.42C308.69 437.713 309.81 441.82 311.397 445.74C312.984 449.66 315.224 452.74 318.117 454.98C321.104 457.127 324.65 458.2 328.757 458.2Z" fill="black"/>
</g>
<defs>
<clipPath id="clip0">
<rect width="512" height="512" fill="white"/>
</clipPath>
</defs>
</svg>
